PathFileType	3	(X/Y/Z)	RCH0000002 BBF 03.c3d
DataRate	CameraRate	NumFrames	NumMarkers	Units	OrigDataRate	OrigDataStartFrame	OrigNumFrames
100.0	100.0	8	23	mm	100.0	214	376
Frame#	Time	T2			T10			LASI			LPSI			RPSI			LANK			LMED			LTOE			RPAT			RANK			RMED			RHEE			RTOE			MAN			LPAT			RKNE			LKNE			RASI			LHEE			RTHI			LTHI			RTIB			LTIB			
		X1	Y1	Z1	X2	Y2	Z2	X3	Y3	Z3	X4	Y4	Z4	X5	Y5	Z5	X6	Y6	Z6	X7	Y7	Z7	X8	Y8	Z8	X9	Y9	Z9	X10	Y10	Z10	X11	Y11	Z11	X12	Y12	Z12	X13	Y13	Z13	X14	Y14	Z14	X15	Y15	Z15	X16	Y16	Z16	X17	Y17	Z17	X18	Y18	Z18	X19	Y19	Z19	X20	Y20	Z20	X21	Y21	Z21	X22	Y22	Z22	X23	Y23	Z23	

214	2.130	-1605.69929	-57.83975	996.35492	-1595.00770	-63.79424	805.91878	-1511.72466	18.14891	648.41150	-1611.41189	-42.57029	711.01904	-1600.03415	-111.12589	723.84527	-1660.75115	13.68536	133.63593	-1635.04763	-53.04218	140.11254	-1611.01859	-9.81433	106.17666	-1512.53565	-109.79987	388.81194	-1589.97762	-177.01793	82.95904	-1618.42763	-115.33323	97.89144	-1642.21402	-161.80494	115.58408	-1557.30595	-129.37460	72.91179	-1477.25752	-35.16801	965.55855	-1443.89494	-13.53367	390.71365	-1546.75970	-171.92434	356.87275	-1503.02900	31.34518	350.68384	-1484.37152	-154.86905	675.05426	-1671.37714	-33.43789	172.83916	-1504.26283	-235.66400	463.95828	-1539.71520	98.00445	471.98468	-1554.52249	-241.02231	237.93552	-1581.11959	85.41612	264.87864	
215	2.140	-1597.21551	-57.30087	996.63449	-1588.02444	-62.58985	805.92546	-1502.86949	18.09629	648.32218	-1604.02720	-40.81203	709.93405	-1593.52908	-109.45984	723.36247	-1635.42968	17.52173	132.94812	-1610.07207	-49.41912	139.64531	-1584.78235	-5.81200	107.22711	-1509.80929	-110.92091	388.43810	-1589.61400	-176.72933	83.49084	-1617.31046	-114.77979	98.66405	-1641.51777	-161.13293	116.51120	-1556.66318	-129.31378	73.09325	-1469.19537	-34.22997	964.67407	-1427.24956	-12.18997	396.08078	-1545.01981	-172.59572	357.19690	-1484.27644	33.20312	354.24131	-1478.15178	-155.27524	675.53475	-1647.56527	-29.85106	171.31608	-1501.77912	-236.35561	463.95779	-1525.32589	99.37882	474.08515	-1554.33621	-241.47774	238.15518	-1559.60412	88.02721	266.83892	
216	2.150	-1588.77529	-56.72626	996.88254	-1581.06243	-61.36613	805.90427	-1494.02997	18.04605	648.22108	-1596.64160	-39.05878	708.85296	-1587.02346	-107.79370	722.86896	-1610.08298	21.42938	132.21635	-1585.10193	-45.73057	139.11902	-1558.54902	-1.76065	108.25413	-1507.08691	-111.99958	388.06248	-1589.26764	-176.42881	84.02013	-1616.21439	-114.22032	99.43051	-1640.83483	-160.44947	117.43352	-1556.03576	-129.24151	73.27332	-1461.16306	-33.28617	963.77924	-1410.81626	-10.90919	401.36738	-1543.27140	-173.24009	357.52218	-1465.72762	35.02575	357.77062	-1471.94401	-155.65656	675.99839	-1623.74897	-26.19148	169.70443	-1499.26142	-237.00751	463.95287	-1511.03190	100.72940	476.17159	-1554.14376	-241.90833	238.37725	-1538.18100	90.65633	268.76352	
217	2.160	-1580.39464	-56.07253	997.06440	-1574.11013	-60.09869	805.82413	-1485.18563	18.00234	648.09111	-1589.22057	-37.30730	707.77234	-1580.48545	-106.11961	722.34941	-1584.69360	25.45647	131.38631	-1560.15312	-41.93347	138.46569	-1532.33116	2.36394	109.21491	-1504.33903	-112.99590	387.67959	-1588.94305	-176.10915	84.54870	-1615.14596	-113.65192	100.19000	-1640.16302	-159.74678	118.35473	-1555.42832	-129.15054	73.45027	-1453.16275	-32.32421	962.86224	-1394.77474	-9.75660	406.46840	-1541.47593	-173.82902	357.84838	-1447.55680	36.77341	361.21675	-1465.72907	-155.98827	676.42734	-1599.92998	-22.40557	167.91345	-1496.65403	-237.58229	463.93939	-1496.89359	102.03031	478.21182	-1553.91675	-242.29011	238.60685	-1516.92487	93.30890	270.59608	
218	2.170	-1572.07768	-55.30137	997.15094	-1567.14741	-58.76522	805.65897	-1476.30666	17.96899	647.91619	-1581.72416	-35.55103	706.68606	-1573.87866	-104.42711	721.78975	-1559.24439	29.63256	130.41089	-1535.24151	-38.00217	137.62779	-1506.14079	6.56825	110.06678	-1501.53096	-113.87902	387.28560	-1588.63885	-175.76776	85.08025	-1614.10525	-113.07461	100.94437	-1639.49523	-159.02150	119.28145	-1554.84022	-129.03751	73.62336	-1445.18698	-31.33146	961.91290	-1379.26362	-8.78740	411.28447	-1539.59178	-174.33945	358.17711	-1429.90023	38.41010	364.52053	-1459.48076	-156.25005	676.80823	-1576.10854	-18.45526	165.86928	-1493.90489	-238.05143	463.91597	-1482.95076	103.25857	480.17198	-1553.62426	-242.60456	238.85076	-1495.88726	95.98490	272.27904	
219	2.180	-1563.82013	-54.38169	997.11995	-1560.14903	-57.34736	805.38900	-1467.35906	17.94943	647.68168	-1574.11195	-33.78088	705.58563	-1567.16640	-102.70427	721.17790	-1533.74093	33.96090	129.25291	-1510.40278	-33.93572	136.56141	-1480.01052	10.83459	110.76704	-1498.62366	-114.62850	386.87852	-1588.34687	-175.40758	85.62011	-1613.08525	-112.49212	101.69805	-1638.81889	-158.27585	120.22293	-1554.26503	-128.90368	73.79271	-1437.22269	-30.29588	960.92393	-1364.38060	-8.04449	415.72159	-1537.57524	-174.75453	358.51131	-1412.85829	39.90389	367.61698	-1453.16927	-156.42699	677.13259	-1552.30297	-14.32585	163.52105	-1490.96890	-238.39682	463.88424	-1469.22725	104.39423	482.01461	-1553.23269	-242.83958	239.11711	-1475.10801	98.67514	273.75428	
220	2.190	-1555.61210	-53.29011	996.95612	-1553.08662	-55.83146	805.00075	-1458.30789	17.94680	647.37439	-1566.34567	-31.98616	704.46056	-1560.31387	-100.93863	720.50393	-1508.22777	38.41516	127.88553	-1485.70606	-29.76104	135.23616	-1454.00836	15.11911	111.27204	-1495.57370	-115.23399	386.45764	-1588.05217	-175.03697	86.17485	-1612.07204	-111.91184	102.45753	-1638.11584	-157.51753	121.19058	-1553.69063	-128.75491	73.95891	-1429.25391	-29.20646	959.89141	-1350.18613	-7.55839	419.69022	-1535.38046	-175.06321	358.85430	-1396.49994	41.22684	370.43457	-1446.76319	-156.50986	677.39626	-1528.56379	-10.03021	160.84227	-1487.80859	-238.61046	463.84837	-1455.73457	105.42003	483.69689	-1552.70546	-242.98933	239.41464	-1454.62588	101.35878	274.96388	
221	2.200	-1547.44026	-52.01049	996.65011	-1545.92973	-54.20881	804.48623	-1449.11933	17.96408	646.98232	-1558.39040	-30.15545	703.29885	-1553.28883	-99.11808	719.75974	-1482.79895	42.93971	126.29097	-1461.26171	-25.53265	133.63318	-1428.24633	19.35353	111.53643	-1492.33271	-115.69357	386.02231	-1587.73374	-174.66862	86.75171	-1611.04530	-111.34422	103.23076	-1637.36257	-156.75869	122.19748	-1553.09985	-128.60093	74.12240	-1421.26366	-28.05328	958.81477	-1336.70860	-7.34830	423.10475	-1532.95901	-175.25910	359.20828	-1380.86777	42.35483	372.89595	-1440.23057	-156.49463	677.59796	-1504.98254	-5.61010	157.82909	-1484.39316	-238.69280	463.81395	-1442.47463	106.32112	485.16987	-1552.00258	-243.05320	239.75176	-1434.48761	104.00224	275.85142	
